<svg xmlns="http://www.w3.org/2000/svg" xmlns:xlink="http://www.w3.org/1999/xlink" version="1.1" x="0px" y="0px" viewBox="0 0 100 125" enable-background="new 0 0 100 100" xml:space="preserve" fill="#00A19B"><rect x="0" y="0" fill="none" width="100" height="100"/><g><path d="M72.895,2.087c-13.844,0-25.107,11.262-25.107,25.107S59.05,52.3,72.895,52.3C86.738,52.3,98,41.038,98,27.194   S86.738,2.087,72.895,2.087z M72.895,45.589c-10.144,0-18.395-8.253-18.395-18.395S62.751,8.798,72.895,8.798   c10.143,0,18.394,8.253,18.394,18.395S83.037,45.589,72.895,45.589z"/><path d="M82.29,23.167h-5.369v-5.369c0-2.223-1.804-4.027-4.027-4.027c-2.223,0-4.027,1.804-4.027,4.027v5.369h-5.369   c-2.223,0-4.027,1.804-4.027,4.027s1.804,4.027,4.027,4.027h5.369v5.369c0,2.223,1.804,4.027,4.027,4.027   c2.223,0,4.027-1.804,4.027-4.027V31.22h5.369c2.223,0,4.027-1.804,4.027-4.027S84.513,23.167,82.29,23.167z"/><path d="M94.593,51.619c-1.848,0-3.345,1.495-3.353,3.342H9.361V16.233c0-4.071,3.311-7.382,7.382-7.382H46.16   c1.853,0,3.356-1.502,3.356-3.356S48.014,2.14,46.16,2.14H16.744C8.973,2.14,2.65,8.463,2.65,16.233v46.907   c0,7.77,6.323,14.093,14.093,14.093h22.122l-6.259,12.625h-7.789c-2.223,0-4.027,1.804-4.027,4.027   c0,2.223,1.804,4.027,4.027,4.027h48.32c2.223,0,4.027-1.804,4.027-4.027c0-2.223-1.804-4.027-4.027-4.027H67.78l-6.259-12.625   h22.334c7.77,0,14.093-6.323,14.093-14.093v-8.166C97.949,53.121,96.447,51.619,94.593,51.619z M40.098,89.859l6.259-12.625h7.675   l6.259,12.625H40.098z M91.238,63.141c0,4.071-3.311,7.382-7.382,7.382H16.744c-4.071,0-7.382-3.311-7.382-7.382v-0.126h81.876   V63.141z"/></g></svg>