<svg width="43" height="53" viewBox="0 0 43 53" fill="none" xmlns="http://www.w3.org/2000/svg">
<g clip-path="url(#clip0_114_2)">
<path d="M23.7934 20.9641L34.9715 9.97543C35.3056 9.64646 35.4933 9.20028 35.4933 8.73505C35.4933 8.26982 35.3056 7.82364 34.9715 7.49468C34.6374 7.16571 34.1843 6.9809 33.7118 6.9809C33.2393 6.9809 32.7861 7.16571 32.452 7.49468L21.2916 18.5008L10.1313 7.49468C9.79716 7.16571 9.34401 6.9809 8.87151 6.9809C8.39901 6.9809 7.94586 7.16571 7.61175 7.49468C7.27764 7.82364 7.08994 8.26982 7.08994 8.73505C7.08994 9.20028 7.27764 9.64646 7.61175 9.97543L18.7899 20.9641L7.61175 31.9528C7.44545 32.1152 7.31345 32.3084 7.22337 32.5213C7.13329 32.7342 7.08691 32.9625 7.08691 33.1932C7.08691 33.4238 7.13329 33.6521 7.22337 33.865C7.31345 34.0779 7.44545 34.2711 7.61175 34.4335C7.7767 34.5973 7.97294 34.7273 8.18915 34.816C8.40537 34.9046 8.63728 34.9503 8.87151 34.9503C9.10574 34.9503 9.33765 34.9046 9.55386 34.816C9.77008 34.7273 9.96632 34.5973 10.1313 34.4335L21.2916 23.4274L32.452 34.4335C32.617 34.5973 32.8132 34.7273 33.0294 34.816C33.2456 34.9046 33.4776 34.9503 33.7118 34.9503C33.946 34.9503 34.1779 34.9046 34.3941 34.816C34.6104 34.7273 34.8066 34.5973 34.9715 34.4335C35.1378 34.2711 35.2698 34.0779 35.3599 33.865C35.45 33.6521 35.4964 33.4238 35.4964 33.1932C35.4964 32.9625 35.45 32.7342 35.3599 32.5213C35.2698 32.3084 35.1378 32.1152 34.9715 31.9528L23.7934 20.9641Z" fill="#FF6B6B"/>
</g>
<defs>
<clipPath id="clip0_114_2">
<rect width="42.5833" height="52.4103" fill="white"/>
</clipPath>
</defs>
</svg>
