<svg width="204" height="68" viewBox="0 0 204 68" fill="none" xmlns="http://www.w3.org/2000/svg">
<rect y="8" width="100" height="50" rx="5" fill="url(#paint0_linear_3_111)"/>
<g filter="url(#filter0_d_3_111)">
<path d="M20.192 48.384C19.392 48.384 18.704 48.192 18.128 47.808C17.552 47.392 17.088 46.752 16.736 45.888L9.776 28.128C9.488 27.36 9.392 26.688 9.488 26.112C9.616 25.504 9.92 25.024 10.4 24.672C10.88 24.32 11.52 24.144 12.32 24.144C13.024 24.144 13.6 24.32 14.048 24.672C14.496 24.992 14.88 25.616 15.2 26.544L21.008 42.528H19.904L25.904 26.16C26.16 25.456 26.496 24.944 26.912 24.624C27.36 24.304 27.936 24.144 28.64 24.144C29.344 24.144 29.92 24.32 30.368 24.672C30.816 24.992 31.152 25.488 31.376 26.16L37.28 42.528H36.272L42.128 26.4C42.448 25.536 42.848 24.944 43.328 24.624C43.84 24.304 44.4 24.144 45.008 24.144C45.776 24.144 46.368 24.336 46.784 24.72C47.2 25.104 47.44 25.6 47.504 26.208C47.568 26.784 47.456 27.424 47.168 28.128L40.256 45.888C39.936 46.72 39.472 47.344 38.864 47.76C38.288 48.176 37.6 48.384 36.8 48.384C36 48.384 35.296 48.176 34.688 47.76C34.112 47.344 33.664 46.72 33.344 45.888L27.056 29.232H29.792L23.648 45.84C23.328 46.704 22.88 47.344 22.304 47.76C21.728 48.176 21.024 48.384 20.192 48.384ZM55.0179 48.336C54.0579 48.336 53.3219 48.048 52.8099 47.472C52.2979 46.896 52.0419 46.096 52.0419 45.072V27.456C52.0419 26.4 52.2979 25.6 52.8099 25.056C53.3219 24.48 54.0579 24.192 55.0179 24.192C55.9779 24.192 56.7139 24.48 57.2259 25.056C57.7699 25.6 58.0419 26.4 58.0419 27.456V45.072C58.0419 46.096 57.7859 46.896 57.2739 47.472C56.7619 48.048 56.0099 48.336 55.0179 48.336ZM55.0179 19.728C53.8979 19.728 53.0179 19.456 52.3779 18.912C51.7699 18.336 51.4659 17.552 51.4659 16.56C51.4659 15.536 51.7699 14.752 52.3779 14.208C53.0179 13.664 53.8979 13.392 55.0179 13.392C56.1699 13.392 57.0499 13.664 57.6579 14.208C58.2659 14.752 58.5699 15.536 58.5699 16.56C58.5699 17.552 58.2659 18.336 57.6579 18.912C57.0499 19.456 56.1699 19.728 55.0179 19.728ZM73.3003 48.48C71.2523 48.48 69.4443 47.984 67.8763 46.992C66.3403 46 65.1403 44.592 64.2763 42.768C63.4123 40.912 62.9803 38.736 62.9803 36.24C62.9803 33.712 63.4123 31.552 64.2763 29.76C65.1403 27.936 66.3403 26.528 67.8763 25.536C69.4443 24.544 71.2523 24.048 73.3003 24.048C75.2523 24.048 76.9483 24.528 78.3883 25.488C79.8603 26.448 80.8523 27.712 81.3643 29.28H80.8363V16.8C80.8363 15.808 81.0923 15.056 81.6043 14.544C82.1163 14.032 82.8523 13.776 83.8123 13.776C84.7723 13.776 85.5083 14.032 86.0203 14.544C86.5643 15.056 86.8363 15.808 86.8363 16.8V45.312C86.8363 46.304 86.5803 47.072 86.0683 47.616C85.5563 48.128 84.8203 48.384 83.8603 48.384C82.9003 48.384 82.1643 48.128 81.6523 47.616C81.1403 47.072 80.8843 46.304 80.8843 45.312V41.568L81.4123 43.008C80.9323 44.672 79.9563 46 78.4843 46.992C77.0123 47.984 75.2843 48.48 73.3003 48.48ZM74.9803 43.92C76.1643 43.92 77.2043 43.632 78.1003 43.056C78.9963 42.48 79.6843 41.632 80.1643 40.512C80.6763 39.36 80.9323 37.936 80.9323 36.24C80.9323 33.68 80.3883 31.776 79.3003 30.528C78.2123 29.248 76.7723 28.608 74.9803 28.608C73.7963 28.608 72.7563 28.896 71.8603 29.472C70.9643 30.016 70.2603 30.864 69.7483 32.016C69.2683 33.136 69.0283 34.544 69.0283 36.24C69.0283 38.768 69.5723 40.688 70.6603 42C71.7483 43.28 73.1883 43.92 74.9803 43.92Z" fill="#F9F8F6"/>
</g>
<rect x="104" y="8" width="100" height="50" rx="5" fill="url(#paint1_linear_3_111)"/>
<g filter="url(#filter1_d_3_111)">
<path d="M131.064 57.12C129.336 57.12 127.656 56.96 126.024 56.64C124.424 56.32 122.968 55.824 121.656 55.152C121.048 54.832 120.632 54.448 120.408 54C120.216 53.552 120.152 53.088 120.216 52.608C120.312 52.16 120.504 51.76 120.792 51.408C121.112 51.056 121.496 50.816 121.944 50.688C122.392 50.56 122.856 50.624 123.336 50.88C124.744 51.584 126.072 52.032 127.32 52.224C128.6 52.448 129.688 52.56 130.584 52.56C132.728 52.56 134.328 52.032 135.384 50.976C136.472 49.952 137.016 48.416 137.016 46.368V42.048H137.448C136.968 43.68 135.96 44.992 134.424 45.984C132.92 46.944 131.208 47.424 129.288 47.424C127.176 47.424 125.336 46.944 123.768 45.984C122.2 44.992 120.984 43.616 120.12 41.856C119.256 40.096 118.824 38.048 118.824 35.712C118.824 33.952 119.064 32.368 119.544 30.96C120.056 29.52 120.76 28.288 121.656 27.264C122.584 26.24 123.688 25.456 124.968 24.912C126.28 24.336 127.72 24.048 129.288 24.048C131.272 24.048 133 24.544 134.472 25.536C135.976 26.496 136.952 27.776 137.4 29.376L136.92 30.576V27.168C136.92 26.176 137.176 25.424 137.688 24.912C138.232 24.4 138.968 24.144 139.896 24.144C140.856 24.144 141.592 24.4 142.104 24.912C142.616 25.424 142.872 26.176 142.872 27.168V45.648C142.872 49.456 141.864 52.32 139.848 54.24C137.832 56.16 134.904 57.12 131.064 57.12ZM130.92 42.864C132.168 42.864 133.24 42.576 134.136 42C135.032 41.424 135.72 40.608 136.2 39.552C136.712 38.464 136.968 37.184 136.968 35.712C136.968 33.504 136.424 31.776 135.336 30.528C134.248 29.248 132.776 28.608 130.92 28.608C129.672 28.608 128.6 28.896 127.704 29.472C126.808 30.048 126.104 30.864 125.592 31.92C125.112 32.976 124.872 34.24 124.872 35.712C124.872 37.92 125.416 39.664 126.504 40.944C127.592 42.224 129.064 42.864 130.92 42.864ZM160.657 48.48C158.001 48.48 155.713 47.984 153.793 46.992C151.873 46 150.385 44.592 149.329 42.768C148.305 40.944 147.793 38.784 147.793 36.288C147.793 33.856 148.289 31.728 149.281 29.904C150.305 28.08 151.697 26.656 153.457 25.632C155.249 24.576 157.281 24.048 159.553 24.048C161.217 24.048 162.705 24.32 164.017 24.864C165.361 25.408 166.497 26.192 167.425 27.216C168.385 28.24 169.105 29.488 169.585 30.96C170.097 32.4 170.353 34.032 170.353 35.856C170.353 36.432 170.145 36.88 169.729 37.2C169.345 37.488 168.785 37.632 168.049 37.632H152.641V34.176H166.129L165.361 34.896C165.361 33.424 165.137 32.192 164.689 31.2C164.273 30.208 163.649 29.456 162.817 28.944C162.017 28.4 161.009 28.128 159.793 28.128C158.449 28.128 157.297 28.448 156.337 29.088C155.409 29.696 154.689 30.576 154.177 31.728C153.697 32.848 153.457 34.192 153.457 35.76V36.096C153.457 38.72 154.065 40.688 155.281 42C156.529 43.28 158.353 43.92 160.753 43.92C161.585 43.92 162.513 43.824 163.537 43.632C164.593 43.408 165.585 43.04 166.513 42.528C167.185 42.144 167.777 41.984 168.289 42.048C168.801 42.08 169.201 42.256 169.489 42.576C169.809 42.896 170.001 43.296 170.065 43.776C170.129 44.224 170.033 44.688 169.777 45.168C169.553 45.648 169.153 46.064 168.577 46.416C167.457 47.12 166.161 47.648 164.689 48C163.249 48.32 161.905 48.48 160.657 48.48ZM178.176 48.384C177.184 48.384 176.416 48.128 175.872 47.616C175.36 47.072 175.104 46.304 175.104 45.312V27.168C175.104 26.176 175.36 25.424 175.872 24.912C176.384 24.4 177.104 24.144 178.032 24.144C178.96 24.144 179.68 24.4 180.192 24.912C180.704 25.424 180.96 26.176 180.96 27.168V30.192H180.48C180.928 28.272 181.808 26.816 183.12 25.824C184.432 24.832 186.176 24.24 188.352 24.048C189.024 23.984 189.552 24.16 189.936 24.576C190.352 24.96 190.592 25.568 190.656 26.4C190.72 27.2 190.528 27.856 190.08 28.368C189.664 28.848 189.024 29.136 188.16 29.232L187.104 29.328C185.152 29.52 183.68 30.128 182.688 31.152C181.696 32.144 181.2 33.552 181.2 35.376V45.312C181.2 46.304 180.944 47.072 180.432 47.616C179.92 48.128 179.168 48.384 178.176 48.384Z" fill="#F9F8F6"/>
</g>
<defs>
<filter id="filter0_d_3_111" x="1.34399" y="7.392" width="93.4922" height="51.088" filterUnits="userSpaceOnUse" color-interpolation-filters="sRGB">
<feFlood flood-opacity="0" result="BackgroundImageFix"/>
<feColorMatrix in="SourceAlpha" type="matrix" values="0 0 0 0 0 0 0 0 0 0 0 0 0 0 0 0 0 0 127 0" result="hardAlpha"/>
<feOffset dy="2"/>
<feGaussianBlur stdDeviation="4"/>
<feComposite in2="hardAlpha" operator="out"/>
<feColorMatrix type="matrix" values="0 0 0 0 0 0 0 0 0 0 0 0 0 0 0 0 0 0 0.3 0"/>
<feBlend mode="normal" in2="BackgroundImageFix" result="effect1_dropShadow_3_111"/>
<feBlend mode="normal" in="SourceGraphic" in2="effect1_dropShadow_3_111" result="shape"/>
</filter>
<filter id="filter1_d_3_111" x="110.824" y="17.952" width="87.9284" height="49.168" filterUnits="userSpaceOnUse" color-interpolation-filters="sRGB">
<feFlood flood-opacity="0" result="BackgroundImageFix"/>
<feColorMatrix in="SourceAlpha" type="matrix" values="0 0 0 0 0 0 0 0 0 0 0 0 0 0 0 0 0 0 127 0" result="hardAlpha"/>
<feOffset dy="2"/>
<feGaussianBlur stdDeviation="4"/>
<feComposite in2="hardAlpha" operator="out"/>
<feColorMatrix type="matrix" values="0 0 0 0 0 0 0 0 0 0 0 0 0 0 0 0 0 0 0.3 0"/>
<feBlend mode="normal" in2="BackgroundImageFix" result="effect1_dropShadow_3_111"/>
<feBlend mode="normal" in="SourceGraphic" in2="effect1_dropShadow_3_111" result="shape"/>
</filter>
<linearGradient id="paint0_linear_3_111" x1="50" y1="8" x2="50" y2="58" gradientUnits="userSpaceOnUse">
<stop stop-color="#00A19B"/>
<stop offset="1" stop-color="#6BA4FF"/>
</linearGradient>
<linearGradient id="paint1_linear_3_111" x1="154" y1="8" x2="154" y2="58" gradientUnits="userSpaceOnUse">
<stop offset="0.423077" stop-color="#6BA4FF"/>
<stop offset="1" stop-color="#00A19B"/>
</linearGradient>
</defs>
</svg>
