<svg xmlns="http://www.w3.org/2000/svg" version="1.1" viewBox="-5.0 -10.0 110.0 135.0" fill="#00A19B">
 <path d="m81 28c0-4.9609-4.0391-9-9-9h-12c-1.6484 0-3 1.3516-3 3s1.3516 3 3 3h10.762l-19.379 19.379c-1.1719 1.1719-1.1719 3.0703 0 4.2383 1.1719 1.1719 3.1094 1.1289 4.2383 0l19.379-19.379v10.762c0 1.6484 1.3516 3 3 3s3-1.3516 3-3z"/>
 <path d="m21.531 74.328c1.1016 1.6484 2.4883 3.0391 4.1406 4.1406 3.7812 2.5312 9.3086 2.5312 20.328 2.5312s16.551 0 20.328-2.5312c1.6484-1.1016 3.0391-2.4883 4.1406-4.1406 2.3984-3.5898 2.5195-8.7617 2.5312-18.328 0-0.80078-0.30859-1.5508-0.87891-2.1211-0.57031-0.57031-1.3203-0.87891-2.1211-0.87891-1.6602 0-3 1.3398-3 3 0 8.6719-0.16016 12.969-1.5117 15-0.66016 0.98828-1.5 1.8281-2.4805 2.4805-2.2695 1.5195-7.5 1.5195-17 1.5195s-14.73 0-17-1.5195c-0.98828-0.66016-1.8203-1.5-2.4805-2.4805-1.5195-2.2695-1.5195-7.5-1.5195-17s0-14.73 1.5195-17c0.66016-0.98828 1.5-1.8203 2.4805-2.4805 2.0312-1.3594 6.3398-1.5117 15-1.5195 1.6484 0 3-1.3516 3-3s-1.3516-3-3-3c-9.5781 0-14.738 0.12109-18.328 2.5312-1.6406 1.1016-3.0391 2.4883-4.1406 4.1406-2.5312 3.7812-2.5312 9.3086-2.5312 20.328s0 16.551 2.5312 20.328z"/>
</svg>