<svg xmlns="http://www.w3.org/2000/svg" data-name="Layer 1" viewBox="0 0 64 80" x="0px" y="0px" fill="#00A19B"><path d="M54.29,33.54a23.66,23.66,0,0,1-28.41,22,7.9,7.9,0,0,1-4.27-13h0a7.89,7.89,0,0,0-4.25-13h0a7.91,7.91,0,0,1-4.16-13.09A23.63,23.63,0,0,1,54.29,33.54ZM23.36,17.19a3.16,3.16,0,1,0,3.15,3.15A3.15,3.15,0,0,0,23.36,17.19Zm13.84,0a3.16,3.16,0,1,0,3.16,3.15A3.15,3.15,0,0,0,37.2,17.19Zm6.92,12a3.15,3.15,0,1,0,3.15,3.15A3.15,3.15,0,0,0,44.12,29.24ZM36.54,41.49a3.15,3.15,0,1,0,3.75,2.41A3.14,3.14,0,0,0,36.54,41.49Z"/></svg>