<svg xmlns:dc="http://purl.org/dc/elements/1.1/" xmlns:cc="http://creativecommons.org/ns#" xmlns:rdf="http://www.w3.org/1999/02/22-rdf-syntax-ns#" xmlns:svg="http://www.w3.org/2000/svg" xmlns="http://www.w3.org/2000/svg" xmlns:sodipodi="http://sodipodi.sourceforge.net/DTD/sodipodi-0.dtd" xmlns:inkscape="http://www.inkscape.org/namespaces/inkscape" version="1.1" x="0px" y="0px" viewBox="0 0 100 125" fill="#FF6B6B"><g transform="translate(0,-952.36218)"><path style="color:#000000;enable-background:accumulate;" d="m 50.093748,964.36216 c -3.48575,0 -5.90372,1.2963 -7.6875,2.6562 -1.78378,1.3599 -3.0299,2.6528 -5.15625,3.5 a 2.0001999,2.0001999 0 0 0 -1.3125,1.8438 l -18.9375,0 0,4 66.000004,0 0,-4 -18.937504,0 a 2.0001999,2.0001999 0 0 0 -1.3125,-1.8438 c -2.14095,-0.8508 -3.45228,-2.1518 -5.21875,-3.5 -1.76647,-1.3482 -4.11544,-2.6562 -7.4375,-2.6562 z m 0,4 c 2.38807,0 3.49086,0.6919 5,1.8437 0.79956,0.6102 1.67157,1.3936 2.75,2.1563 l -15.75,0 c 1.07797,-0.7711 1.95015,-1.5465 2.75,-2.1563 1.49532,-1.14 2.63902,-1.8437 5.25,-1.8437 z m -27.09375,10 0,53.03124 c 0,5.9829 2.98459,8.9688 9.03125,8.9688 l 36,0 c 5.95926,0 8.96875,-2.9859 8.96875,-8.9688 l 0,-53.03124 -54,0 z m 11,13 4,0 0,36.00004 -4,0 0,-36.00004 z m 14,0 4,0 0,36.00004 -4,0 0,-36.00004 z m 14,0 4,0 0,36.00004 -4,0 0,-36.00004 z" fill="#FF6B6B" stroke="none" marker="none" visibility="visible" display="inline" overflow="visible"/></g></svg>